Coordinates
version=1
nRows=13
nColumns=40
inDegrees=yes

Units are S.I. units (second, meters, Newtons, ...)
Angles are in degrees.

endheader
time	pelvis_tilt	pelvis_list	pelvis_rotation	pelvis_tx	pelvis_ty	pelvis_tz	hip_flexion_r	hip_adduction_r	hip_rotation_r	knee_angle_r	knee_angle_r_beta	ankle_angle_r	subtalar_angle_r	mtp_angle_r	hip_flexion_l	hip_adduction_l	hip_rotation_l	knee_angle_l	knee_angle_l_beta	ankle_angle_l	subtalar_angle_l	mtp_angle_l	lumbar_extension	lumbar_bending	lumbar_rotation	arm_flex_r	arm_add_r	arm_rot_r	elbow_flex_r	pro_sup_r	wrist_flex_r	wrist_dev_r	arm_flex_l	arm_add_l	arm_rot_l	elbow_flex_l	pro_sup_l	wrist_flex_l	wrist_dev_l
     57.31228571	     -1.75633416	     -6.99653484	      6.75234749	      1.05167335	      0.91132715	      0.53392297	     11.73682671	      8.90778713	    -10.43636777	     27.94763575	     27.94763575	     19.04575577	    -13.41105923	      0.56285176	     31.52019098	    -16.39549198	      6.44092109	     67.48444256	     67.48444256	      9.43627669	    -19.54244214	     21.93907282	     -9.80527942	      5.55296226	      2.28826717	     26.72515763	    -15.92662079	      1.67105859	     45.91058810	     45.74533742	      0.00000000	      0.00000000	     -5.76412925	     -8.35398858	      7.43970803	     23.97915583	     44.39533576	      0.00000000	      0.00000000
     57.33457143	     -1.82583464	     -6.85088694	      7.48139173	      1.05121822	      0.91269443	      0.53435332	     11.20194863	      8.81979471	    -10.91694754	     27.24234680	     27.24234680	     18.79885794	    -13.41048936	      0.50362599	     32.48520345	    -15.90913277	      6.17587845	     66.03681684	     66.03681684	     10.24448199	    -19.58084764	     22.28014415	     -9.68541733	      5.50694957	      2.79771477	     28.87818390	    -17.06290544	      1.65671269	     50.32694905	     45.55769195	      0.00000000	      0.00000000	     -8.25011222	    -10.01171780	     18.52602357	     26.19910980	     42.73114514	      0.00000000	      0.00000000
     57.35685714	     -2.00259964	     -6.57796316	      8.22347812	      1.05060880	      0.91457394	      0.53415060	     10.66498035	      8.53603955	    -11.46143644	     26.36535090	     26.36535090	     18.53005699	    -13.19594373	      0.69346780	     33.11805355	    -15.09655967	      5.88196575	     63.63106089	     63.63106089	     11.18381626	    -19.58373460	     22.30031101	     -9.47578886	      5.32380545	      2.60111117	     31.97325252	    -17.31034689	      1.12654826	     52.84374961	     45.50621986	      0.00000000	      0.00000000	    -10.19789736	     -9.86285194	     18.68667964	     26.18226619	     42.70726636	      0.00000000	      0.00000000
     57.37914286	     -2.29922939	     -6.20776918	      8.97127086	      1.04977008	      0.91660282	      0.53337381	     10.21538864	      8.04823411	    -12.17341938	     25.44380469	     25.44380469	     18.13974342	    -12.74266459	      0.42415538	     33.47443617	    -13.97386602	      5.70078844	     60.38246551	     60.38246551	     11.94452553	    -19.54877260	     21.71066585	     -9.27644274	      5.08468806	      2.74543554	     34.22317335	    -18.07242355	      0.57194060	     57.38021924	     45.38000542	      0.00000000	      0.00000000	    -12.32143382	    -10.11372292	     18.97226754	     28.08612192	     42.73628653	      0.00000000	      0.00000000
     57.40142857	     -2.60783105	     -5.72001585	      9.67724289	      1.04887738	      0.91903190	      0.53217083	      9.69478636	      7.46074029	    -12.72320950	     24.41955203	     24.41955203	     17.76729136	    -12.39614115	      0.58238287	     33.38552137	    -12.58817186	      5.68165481	     56.34501624	     56.34501624	     12.59380028	    -19.45132863	     21.32931502	     -9.00047096	      4.72722945	      2.64827425	     37.16673776	    -18.33600225	      0.20870443	     59.61549632	     45.33202447	      0.00000000	      0.00000000	    -13.69700813	     -9.95657284	     19.24734132	     28.00463193	     42.69985988	      0.00000000	      0.00000000
     57.42371429	     -3.03127293	     -5.28844708	     10.38356661	      1.04780263	      0.92108077	      0.53053665	      9.27611721	      6.81433496	    -13.59369469	     23.36553516	     23.36553516	     17.21801183	    -11.64990233	     -0.15335344	     33.06647037	    -11.21501112	      5.84018845	     51.61894451	     51.61894451	     11.95661859	    -19.30186354	     17.70418864	     -8.75844062	      4.44713848	      2.84447078	     39.15806343	    -19.25750299	     -0.19770525	     64.33621833	     45.20396637	      0.00000000	      0.00000000	    -15.20683877	    -10.23156075	     20.23519707	     29.77884330	     42.68183349	      0.00000000	      0.00000000
     57.44600000	     -3.46188012	     -4.76535736	     11.01082853	      1.04665728	      0.92312796	      0.52864779	      8.91206690	      6.12703990	    -14.10681906	     22.44789421	     22.44789421	     16.84392787	    -11.32985628	      0.00548765	     32.52410252	     -9.64732402	      6.38789523	     46.71374478	     46.71374478	     12.13054760	    -18.91491246	     17.42636302	     -8.43056488	      4.05263378	      2.81603160	     42.03415989	    -19.47738547	     -0.50599547	     66.13063025	     45.16972185	      0.00000000	      0.00000000	    -16.05661109	    -10.05851243	     20.52757437	     29.66311151	     42.65062478	      0.00000000	      0.00000000
     57.46828571	     -3.76047252	     -4.40170514	     11.58898979	      1.04583345	      0.92478340	      0.52663638	      8.31875414	      5.58806418	    -14.95777125	     21.37749436	     21.37749436	     16.34716814	    -10.49544531	     -0.96267195	     31.46894675	     -8.56161781	      6.82123474	     41.20018422	     41.20018422	      9.69589130	    -18.35845926	     10.40736678	     -8.29740570	      3.88201106	      3.03856444	     44.06744872	    -20.05354606	     -0.89484563	     70.16847033	     45.08678573	      0.00000000	      0.00000000	    -16.90417041	    -10.33250112	     22.61053431	     30.70489652	     42.62295268	      0.00000000	      0.00000000
     57.49057143	     -4.06459023	     -4.03023970	     12.06091567	      1.04503809	      0.92610478	      0.52450609	      7.82302328	      5.04360177	    -15.64660578	     20.52358742	     20.52358742	     16.08759207	     -9.72918480	     -1.35790968	     30.47739366	     -7.54119083	      7.38488011	     36.17894435	     36.17894435	      8.82802798	    -16.97257363	      8.03816584	     -8.10894082	      3.66115091	      3.17533179	     46.39324318	    -20.35769259	     -1.04321870	     72.62891936	     45.05027138	      0.00000000	      0.00000000	    -17.43584467	    -10.36484388	     23.98063890	     31.06033241	     42.68289579	      0.00000000	      0.00000000
     57.51285714	     -4.33581141	     -3.72731303	     12.43294953	      1.04441031	      0.92702108	      0.52241433	      7.38192133	      4.63652654	    -16.01422062	     19.83098874	     19.83098874	     15.98731619	     -9.39502789	     -1.31650040	     29.60744368	     -6.80192930	      7.73470730	     31.85642598	     31.85642598	      9.06182748	    -14.45767218	      8.28426322	     -7.91637079	      3.45864152	      3.18500952	     48.81636506	    -20.31378599	     -1.18159235	     74.03977280	     45.02227552	      0.00000000	      0.00000000	    -17.82594822	    -10.15971854	     24.20305301	     30.98685630	     42.67540268	      0.00000000	      0.00000000
     57.53514286	     -4.56730308	     -3.52537112	     12.72042868	      1.04402575	      0.92754188	      0.52025966	      6.89999209	      4.33786543	    -16.40093225	     19.14869494	     19.14869494	     15.94138905	     -8.88994903	     -1.36741782	     28.81946001	     -6.31517264	      7.85294969	     28.14904805	     28.14904805	      9.20979342	    -11.69717136	      8.48466295	     -7.72517844	      3.35935883	      3.19892525	     51.00079860	    -20.15900401	     -1.23053335	     75.49950005	     44.98844541	      0.00000000	      0.00000000	    -18.04753973	     -9.92704045	     24.41222521	     30.95872974	     42.66918928	      0.00000000	      0.00000000
     57.55742857	     -4.66450389	     -3.48564282	     12.95732568	      1.04401743	      0.92778368	      0.51810482	      6.24763718	      4.21264282	    -17.06516817	     18.40552702	     18.40552702	     15.87223572	     -7.91301071	     -1.94364422	     28.15705773	     -6.19084314	      7.48305703	     25.31254542	     25.31254542	      9.38283958	     -8.42999542	      8.25664996	     -7.67274683	      3.42182038	      3.35399901	     52.64591942	    -20.26441699	     -1.20856480	     77.80445882	     44.93850640	      0.00000000	      0.00000000	    -18.08079284	     -9.80772943	     25.07968491	     30.89151314	     42.70551990	      0.00000000	      0.00000000
     57.57971429	     -4.83146494	     -3.39210071	     13.04673633	      1.04419135	      0.92779793	      0.51588532	      5.78016139	      4.05623002	    -17.21324575	     17.90022699	     17.90022699	     15.91984199	     -7.59263803	     -1.99962809	     27.52960081	     -5.91809184	      7.35988780	     22.95561566	     22.95561566	      9.30374751	     -6.41930937	      8.53275193	     -7.48533884	      3.35518608	      3.45087165	     54.26626446	    -19.99390934	     -1.23998274	     78.78153394	     44.91803120	      0.00000000	      0.00000000	    -18.04589198	     -9.63752817	     25.25832359	     30.83447173	     42.70511305	      0.00000000	      0.00000000
